<svg width="101" height="126" viewBox="0 0 101 126" fill="none" xmlns="http://www.w3.org/2000/svg">
<path fill-rule="evenodd" clip-rule="evenodd" d="M76.719 57.6828C70.4215 64.7784 61.2328 69.2494 51 69.2494C32.0156 69.2494 16.625 53.8606 16.625 34.8744C16.625 15.8923 32.0178 0.499374 51 0.499374C69.9821 0.499374 85.3749 15.8923 85.3749 34.8744C85.3749 41.3772 83.5693 47.4581 80.4324 52.6434C92.884 60.7103 100.998 73.7731 100.998 88.5831V116.058C100.998 121.24 96.8053 125.433 91.6231 125.433H10.3731C5.19548 125.433 0.998047 121.239 0.998047 116.058V88.5831C0.998047 77.2987 5.74945 66.6822 14.1281 58.5528C15.3668 57.3509 17.3453 57.3809 18.5471 58.6197C19.749 59.8581 19.719 61.8366 18.4803 63.0384C11.2831 70.0216 7.24804 79.0375 7.24804 88.5831V116.058C7.24804 117.786 8.6462 119.183 10.3731 119.183H91.6231C93.3534 119.183 94.7481 117.788 94.7481 116.058V88.5831C94.7481 75.9216 87.6599 64.6441 76.719 57.6828ZM71.0325 54.6159C65.9318 59.7913 58.8403 62.9994 51 62.9994C35.4675 62.9994 22.875 50.4087 22.875 34.8744C22.875 19.3441 35.4696 6.74938 51 6.74938C66.5303 6.74938 79.1249 19.3441 79.1249 34.8744C79.1249 40.2612 77.6106 45.2941 74.9846 49.5706C67.8562 46.1022 59.679 44.1331 50.9981 44.1331C49.2721 44.1331 47.8731 45.5322 47.8731 47.2581C47.8731 48.9841 49.2721 50.3831 50.9981 50.3831C58.2281 50.3831 65.0368 51.9125 71.0325 54.6159Z" fill="black"/>
</svg>
