<svg width="161" height="150" viewBox="0 0 161 150" fill="none" xmlns="http://www.w3.org/2000/svg">
<path d="M153.693 39.7028C150.76 37.4739 146.967 36.29 142.726 36.2781C142.704 36.2781 142.684 36.2781 142.662 36.2781C140.163 36.2781 137.563 36.6771 135.136 37.421C124.861 14.6049 103.668 0 80.5 0C57.332 0 36.1388 14.6049 25.864 37.4214C23.4368 36.6775 20.8375 36.2785 18.3377 36.2785C18.3164 36.2785 18.2952 36.2785 18.2744 36.2785C14.0327 36.29 10.2404 37.4743 7.30655 39.7032C2.45812 43.3868 0 49.5832 0 58.1202C0 78.4753 14.0494 92.4526 26.4569 98.4886C31.6481 109.429 39.4252 118.568 49.0007 124.97C53.411 139.5 65.8643 150 80.5 150C95.1388 150 107.595 139.495 112.002 124.96C112.046 124.934 112.09 124.91 112.134 124.881C121.647 118.484 129.378 109.374 134.543 98.4882C146.951 92.4526 161 78.4753 161 58.1202C161 49.5832 158.542 43.3868 153.693 39.7028ZM104.248 83.1971C97.5917 73.0872 89.1578 67.5192 80.5 67.5192C71.8422 67.5192 63.4083 73.0872 56.7523 83.1971C54.4312 86.7223 52.4787 90.5981 50.9598 94.6028C49.5866 87.5877 47.3166 81.1113 44.1988 75.4308C41.7842 71.0309 40.895 65.9597 41.6274 60.765C42.9199 51.5958 49.6336 44.2243 57.953 42.8394C62.7243 42.0453 67.3669 43.0818 71.379 45.8367C77.0049 49.7006 83.9951 49.6999 89.621 45.8367C93.6335 43.0822 98.2764 42.0449 103.047 42.8394C111.366 44.2239 118.08 51.5954 119.373 60.765C120.105 65.9597 119.216 71.0309 116.801 75.4308C113.683 81.1116 111.413 87.5877 110.04 94.6028C108.521 90.5985 106.569 86.7226 104.248 83.1971ZM80.5 144.246C65.0649 144.246 52.5076 130.392 52.5076 113.363C52.5076 104.773 55.7512 94.5092 60.9724 86.5792C68.594 75.0023 76.4785 73.2737 80.5 73.2737C84.5215 73.2737 92.406 75.0023 100.028 86.5792C105.249 94.5092 108.492 104.773 108.492 113.363C108.492 130.392 95.9351 144.246 80.5 144.246ZM131.651 93.5958C131.075 93.8601 130.604 94.3431 130.323 94.958C126.353 103.653 120.604 111.145 113.554 116.891C113.655 115.729 113.708 114.553 113.708 113.364V111.041C113.708 98.6996 116.321 87.4166 121.263 78.4116C124.322 72.8386 125.45 66.4312 124.527 59.8811C122.888 48.2528 114.374 38.9056 103.825 37.1497C97.8967 36.1627 91.8729 37.513 86.8649 40.9515C82.8792 43.688 78.1205 43.688 74.1351 40.9515C69.1271 37.5134 63.104 36.1634 57.1752 37.1497C46.6257 38.9056 38.1125 48.2528 36.4733 59.8811C35.5497 66.4308 36.6781 72.8382 39.7371 78.4116C44.6794 87.4162 47.2916 98.6992 47.2916 111.041V113.363C47.2916 114.554 47.3451 115.73 47.4463 116.891C40.3957 111.146 34.6498 103.657 30.6769 94.9577C30.3963 94.3427 29.9255 93.8601 29.3496 93.5954C18.2166 88.4858 5.21598 76.1286 5.21598 58.1202C5.21598 51.59 6.91465 46.9876 10.2651 44.4422C12.6449 42.6341 18.7028 40.4283 26.3084 43.6312C26.3835 43.6627 26.4593 43.6895 26.5354 43.7129C26.5793 43.7356 26.6217 43.7605 26.6669 43.7808C27.9052 44.3363 28.5547 44.8155 28.8319 45.0518C29.3069 45.4565 29.8678 45.6522 30.4248 45.6522C31.2048 45.6522 31.9764 45.2678 32.4904 44.5343C33.3712 43.2771 33.1611 41.4702 32.0216 40.4981C31.6443 40.1762 31.2121 39.8647 30.7333 39.5636C40.201 18.9364 59.457 5.75448 80.5 5.75448C101.543 5.75448 120.799 18.9364 130.267 39.5636C129.788 39.8647 129.356 40.1762 128.979 40.4981C127.839 41.4698 127.629 43.2767 128.51 44.5343C129.024 45.2678 129.795 45.6522 130.575 45.6522C131.132 45.6522 131.693 45.4561 132.168 45.0518C132.446 44.8151 133.096 44.3352 134.336 43.7797C134.381 43.7593 134.424 43.7348 134.467 43.7121C134.542 43.6887 134.617 43.6627 134.692 43.6312C142.298 40.429 148.355 42.6341 150.735 44.4422C154.085 46.988 155.784 51.59 155.784 58.1202C155.784 76.1286 142.783 88.4858 131.651 93.5958Z" fill="black"/>
<path d="M93.7265 117.949C90.2624 118.881 86.6953 119.431 83.1081 119.612V113.363C83.1081 111.774 81.9404 110.486 80.5001 110.486C79.0598 110.486 77.8921 111.774 77.8921 113.363V119.612C74.2879 119.43 70.7038 118.876 67.2247 117.936C65.8244 117.558 64.414 118.503 64.0715 120.046C63.729 121.59 64.5855 123.147 65.9844 123.525C70.708 124.801 75.5915 125.448 80.5001 125.448C85.3899 125.448 90.2554 124.806 94.962 123.539C96.3612 123.163 97.2191 121.607 96.878 120.063C96.5368 118.519 95.1271 117.573 93.7265 117.949Z" fill="black"/>
<path d="M85.8171 131.693C82.3092 132.06 78.6893 132.06 75.1813 131.693C73.748 131.546 72.4749 132.704 72.339 134.286C72.203 135.868 73.2552 137.272 74.6893 137.422C76.6063 137.622 78.5613 137.724 80.4996 137.724C82.4378 137.724 84.3924 137.622 86.3091 137.422C87.7432 137.272 88.7954 135.868 88.6594 134.286C88.5235 132.704 87.2483 131.545 85.8171 131.693Z" fill="black"/>
<path d="M22.9628 65.9942C21.1142 64.3807 19.7789 63.2145 19.0181 60.374C18.6836 59.1249 18.5643 57.4638 19.8958 56.6448C20.9108 56.021 22.267 56.166 22.9186 56.9697C23.8791 58.1536 25.5277 58.2556 26.6011 57.1953C27.6745 56.1357 27.766 54.3169 26.8056 53.1326C24.5088 50.2999 20.5342 49.6638 17.3556 51.6188C14.8147 53.1813 12.6031 56.7307 14.0153 62.0045C15.2449 66.595 17.6251 68.6731 19.725 70.5069C22.0684 72.5528 24.0926 74.3198 25.0805 80.1338C25.3155 81.5164 26.4105 82.4812 27.6408 82.4812C27.8001 82.4812 27.9618 82.4651 28.1245 82.4313C29.5401 82.1386 30.4724 80.6352 30.2071 79.0734C28.86 71.1434 25.5899 68.2887 22.9628 65.9942Z" fill="black"/>
<path d="M146.426 51.6188C143.247 49.6634 139.273 50.3006 136.976 53.1326C136.015 54.3169 136.107 56.1357 137.18 57.1953C138.253 58.2549 139.902 58.154 140.863 56.9697C141.514 56.1664 142.87 56.0206 143.885 56.6448C145.217 57.4638 145.098 59.1249 144.763 60.374C144.002 63.2145 142.667 64.3807 140.818 65.9942C138.191 68.2884 134.921 71.1434 133.573 79.0734C133.308 80.6352 134.24 82.1386 135.656 82.4313C135.818 82.4651 135.98 82.4812 136.14 82.4812C137.37 82.4812 138.465 81.5164 138.7 80.1338C139.688 74.3202 141.712 72.5528 144.055 70.5069C146.156 68.6731 148.536 66.595 149.765 62.0045C151.178 56.7307 148.966 53.1813 146.426 51.6188Z" fill="black"/>
<path d="M61.0269 58.312C59.5866 58.312 58.4189 59.5999 58.4189 61.1892V67.3273C58.4189 68.9167 59.5866 70.2046 61.0269 70.2046C62.4672 70.2046 63.6349 68.9167 63.6349 67.3273V61.1892C63.6349 59.5999 62.4672 58.312 61.0269 58.312Z" fill="black"/>
<path d="M99.9732 58.312C98.5329 58.312 97.3652 59.5999 97.3652 61.1892V67.3273C97.3652 68.9167 98.5329 70.2046 99.9732 70.2046C101.414 70.2046 102.581 68.9167 102.581 67.3273V61.1892C102.581 59.5999 101.414 58.312 99.9732 58.312Z" fill="black"/>
<path d="M68.2065 97.5222L73.7702 100.591C74.1447 100.798 74.5425 100.896 74.9344 100.896C75.891 100.896 76.8121 100.313 77.2691 99.305C77.9134 97.8836 77.3911 96.1553 76.1028 95.4445L70.5391 92.3754C69.2517 91.6642 67.6849 92.2404 67.0402 93.6621C66.3958 95.0835 66.9181 96.8114 68.2065 97.5222Z" fill="black"/>
<path d="M86.0662 100.896C86.4581 100.896 86.8559 100.798 87.2305 100.591L92.7942 97.5222C94.0825 96.8114 94.6048 95.0835 93.9605 93.6617C93.3165 92.2408 91.7499 91.6646 90.4616 92.375L84.8979 95.4441C83.6095 96.155 83.0872 97.8828 83.7316 99.3046C84.1885 100.313 85.1093 100.896 86.0662 100.896Z" fill="black"/>
</svg>
